<svg width="3099" height="1174" viewBox="0 0 3099 1174" fill="none" xmlns="http://www.w3.org/2000/svg">
<path d="M2477.19 132.393C2483.36 130.453 2489.59 128.685 2495.87 127.092C2527.02 119.402 2616.05 95.8392 2643.86 113.29C2653.47 119.316 2656.05 128.488 2655.7 139.217C2654.91 163.93 2635.69 215.943 2628.43 242.835C2596.52 361.2 2562.2 479.154 2531.44 597.769C2521.73 635.206 2507.65 673.854 2500.9 711.751C2498.32 726.244 2497.95 745.032 2501.76 759.317C2502.93 763.694 2505.53 767.528 2509.53 769.771C2518.29 774.676 2530.93 771.711 2540.04 769.094C2568.98 760.772 2590.07 741.739 2605.99 716.871C2635.76 670.399 2668.42 527.513 2685.2 465.858C2691.04 444.388 2695.86 418.851 2706.8 399.302C2712.84 388.521 2723.67 383.491 2735.13 380.296C2756.43 374.356 2803.44 369.107 2822.84 380.565C2831.18 385.489 2831.18 396.341 2830.74 404.981C2829.46 430.547 2819.34 457.482 2812.61 482.197L2776.39 618.369C2768.28 648.672 2758.03 680.168 2753.46 711.172C2751.51 724.382 2750.3 738.901 2753.95 751.94C2755.91 758.952 2759.97 765.652 2766.6 769.114C2778 775.065 2793.38 771.048 2804.79 767.136C2830.78 758.219 2851.6 739.622 2867 717.261C2908.56 656.957 2932.55 542.193 2951.55 469.65C2957.43 447.242 2961.72 421.726 2972.03 401.008C2977.11 390.771 2983.46 383.33 2994.7 379.623C3015.12 372.888 3064.13 368.668 3083.42 378.672C3090.2 382.186 3094.93 387.704 3097.2 394.995C3099.97 403.896 3099.09 414.089 3097.32 423.095C3091.76 451.397 3081.6 479.933 3073.94 507.852L3033.24 659.007C3009.41 744.767 2989.41 832.452 2961.08 916.866C2948.81 952.897 2933.54 987.834 2915.43 1021.33C2880.08 1085.54 2823.99 1143.83 2751.85 1164.61C2702.91 1178.72 2641.09 1176.41 2596.22 1151.4C2570.56 1137.12 2541.68 1111.75 2533.53 1082.41C2530.95 1073.12 2531.74 1063.71 2536.65 1055.29C2547.46 1036.75 2574.42 1024.09 2594.46 1018.94C2619.34 1027.31 2629.99 1048.82 2651.48 1061.47C2669.96 1072.35 2697.64 1075.96 2718.41 1070.38C2750.75 1061.69 2778.36 1029.51 2794.42 1001.45C2809.61 974.92 2857.37 840.039 2850.49 814.74C2847.96 828.367 2829.47 847.009 2819.2 855.908C2787.89 883.015 2744.48 904.064 2702.36 900.935C2655.99 897.485 2635.09 871.552 2621.84 829.949C2618.99 821.015 2617 809.847 2610.71 802.66C2610.6 802.521 2610.48 802.391 2610.36 802.26C2610.3 802.643 2610.24 803.025 2610.17 803.408C2606.7 822.058 2558.97 858.524 2542.94 869.24C2510.54 890.889 2471.33 907.332 2431.74 899.275C2394.96 891.775 2376.99 862.001 2368.5 827.933C2366.13 818.443 2365.68 808.187 2360.08 799.905C2359.97 799.749 2359.86 799.584 2359.74 799.418C2358.52 812.064 2328.33 838.883 2318.22 847.305C2276.62 881.972 2226.79 907.636 2171.02 902.361C2119.54 897.494 2093.99 866.781 2077.28 821.441C2074.06 812.681 2071.14 800.192 2065.08 793.251C2064.82 792.956 2064.55 792.671 2064.29 792.381C2062.51 808.865 2029.21 835.077 2016.55 845.471C1978.73 876.54 1929.68 906.802 1878.84 901.787C1854.7 899.406 1829.77 894.487 1813.66 874.646C1750.56 796.931 1857.61 623.333 1866.02 534.894C1867.04 524.223 1867.3 509.843 1859.75 501.269C1855.45 496.397 1849.21 494.535 1842.9 494.273C1814.41 493.09 1789.62 510.032 1770.79 529.634C1733.02 568.934 1710.1 619.982 1691.94 670.693C1677 712.436 1664.3 757.309 1652.7 800.14C1647.33 819.963 1644.32 841.047 1636.94 860.21C1633.33 869.579 1629.31 878.192 1621.75 884.996L1621.21 885.466C1616.76 889.933 1609.19 892.957 1603.15 894.608C1581.72 900.483 1521.68 903.23 1503.46 891.914C1480.28 877.531 1515.13 826.047 1510.05 804.711C1510 804.494 1509.94 804.277 1509.88 804.059C1509.27 806.988 1508.22 809.995 1506.51 812.481C1479.3 851.998 1421.32 890.046 1374.39 899.449C1350.29 904.281 1325.77 901.596 1305.07 887.612C1275.49 867.632 1271.77 834.182 1265.64 801.774C1245.59 827.976 1223.76 850.033 1196.44 868.736C1160.97 893.018 1119.53 908.427 1076.02 900.153C1046.22 894.495 1017.28 879.808 1000.07 854.196C966.801 804.65 970.885 727.601 981.996 671.398C1002.13 569.564 1060.67 469.261 1147.98 410.923C1194.74 379.685 1257.83 362.081 1313.63 373.385C1332.07 377.117 1364.67 386.809 1375.67 403.351C1400.6 393.178 1453.38 359.194 1480.62 369.129C1492.75 373.553 1494.38 391.046 1493.67 402.025C1491.78 431.361 1477.72 464.271 1469.03 492.33C1455.7 535.357 1444.24 578.849 1431.49 622.043C1421.68 655.289 1408.04 690.728 1403.4 724.951C1401.87 736.264 1401.59 749.529 1406.85 760.021C1409.44 765.203 1414 769.583 1419.63 771.274C1435.09 775.914 1457.42 764.223 1470.89 756.894C1544.37 716.92 1566.16 626.358 1587.19 552.415C1595.74 522.336 1606 491.334 1612.11 460.675C1615.88 441.76 1613.84 421.107 1619.41 402.664C1622.16 393.571 1627.4 387.746 1635.7 383.389C1662.2 369.482 1705.85 372.843 1733.33 381.574C1739.52 384.268 1745.95 391.642 1748.67 397.656C1753.63 408.613 1752.75 421.08 1748.73 432.155C1752.1 444.651 1745.42 462.725 1739.15 473.512C1736.52 478.043 1733.02 482.199 1729.58 486.145C1739.25 479.922 1752.92 469.799 1756 457.922C1756.16 457.326 1756.18 456.596 1756.22 456.005C1761.12 454.274 1763.78 449.843 1767.13 446.13C1806.99 401.98 1855.2 372.712 1915.82 369.968C1944.64 368.662 1976.31 375.633 1998 395.73C2048.06 442.075 2006.43 531.438 1988.69 584.449C1977.25 618.936 1966.07 653.504 1955.13 688.151C1949.09 707.317 1940.4 728.174 1941.2 748.554C1941.5 756.344 1943.09 765.74 1949.24 771.127C1953.88 775.195 1959.75 776.182 1965.75 775.763C1994.03 773.786 2044.71 735.734 2058.04 710.276C2068.45 690.421 2068.78 663.12 2073.49 641.199C2086.92 578.781 2125.59 515.945 2167.32 468.39C2211.71 417.808 2282.22 374.536 2350.71 370.309C2376.16 368.738 2433.04 371.483 2452.5 388.537C2453.31 387.564 2454.07 386.545 2454.77 385.486C2462.39 373.896 2506.52 204.685 2505.05 198.331C2495.54 185.627 2474.47 183.016 2466.43 166.825C2458.4 150.659 2473.39 146.064 2476.96 133.282C2477.04 132.988 2477.11 132.69 2477.19 132.393ZM2219.81 759.28C2230.51 764.867 2248.94 775.93 2261.28 772.481C2261.48 772.425 2261.66 772.326 2261.85 772.248C2285.35 771.334 2301.66 760.778 2317.42 743.766C2360.74 696.993 2421.48 553.077 2418.39 489.309C2417.94 479.975 2416.01 467.637 2408.74 460.99C2398.67 451.779 2377.84 450.918 2364.92 451.841C2361.86 452.071 2358.79 452.427 2355.76 452.907C2296.33 476.799 2259.26 527.122 2234.68 584.672C2219.14 621.034 2203.15 675.412 2208.72 715.053C2210.74 729.453 2218.93 745.618 2219.81 759.28ZM1171.28 773.937C1221.54 761.128 1237.27 737.43 1262.51 694.889C1288.42 651.228 1339.96 527.57 1327.14 478.664C1324.86 469.955 1320.37 462.515 1312.44 457.825C1302.53 451.971 1288.62 451.252 1277.37 451.926C1229.94 462.793 1197.6 496.621 1172.58 536.507C1142.97 583.707 1110.52 675.585 1123.35 730.96C1126.57 744.885 1133.73 759.049 1146.36 766.705C1153.12 770.806 1163.42 773.46 1171.28 773.937Z" fill="#003953"/>
<path d="M512.633 1.63381C602.134 -7.42041 721.636 22.1111 799.488 66.6052C881.998 113.273 942.268 191.208 966.688 282.836C1001.05 409.145 972.333 549.524 908.161 661.655C840.092 780.587 736.104 869.877 602.591 905.979C499.569 933.827 364.72 919.132 271.927 865.885C254.208 880.859 234.682 893.558 213.806 903.678C169.656 925.555 112.552 933.81 65.0443 917.449C41.4073 909.308 18.8284 893.21 7.77081 870.243C-2.1818 849.577 -2.1757 826.191 5.51702 804.776C15.6066 776.696 38.5149 758.397 64.8761 746.102C112.281 723.989 170.881 726.161 219.391 744.01C308.956 607.042 326.759 293.292 443.419 204.344C475.98 179.518 527.41 159.803 568.835 165.627C587.904 168.309 596.796 175.792 608.057 190.845C596.716 213.487 579.271 229.63 564.328 249.678C557.014 259.49 551.32 270.82 545.533 281.584C518.146 335.066 500.592 396.529 483.195 453.857C448.202 569.164 410.872 688.218 339.715 787.022C389.591 812.429 475.838 817.467 530.444 808.071C604.938 795.248 663.754 747.045 706.573 686.374C779.026 583.715 823.578 444.372 801.843 318.57C790.55 253.21 763.634 192.255 707.919 153.096C625.192 94.9527 527.717 87.2119 429.762 104.425C357.124 117.188 283.895 153.352 240.889 214.986C220.143 244.72 204.059 283.865 210.789 320.696C219.392 367.778 254.404 348.074 282.039 366.923C284.639 369.999 286.689 372.841 286.902 376.995C287.463 387.907 278.234 399.282 271.519 407.023C254.885 426.197 220.428 455.739 193.405 457.449C168.902 458.998 140.945 445.898 123.085 429.835C95.2061 404.762 81.7435 366.919 79.8617 330.11C76.6312 266.93 111.654 197.329 153.161 151.361C244.234 50.4996 380.471 8.45305 512.633 1.63381ZM152.051 847.537C165.489 842.203 178.158 835.099 189.725 826.427C171.564 821.014 155.576 815.837 136.355 817.841C126.975 820.308 118.459 822.487 113.077 831.404C111.021 834.812 110.744 837.723 111.054 841.602C113.533 847.023 116.5 850.239 122.219 852.305C131.761 855.757 143.058 850.91 152.051 847.537Z" fill="#003953"/>
</svg>
